<svg xmlns="http://www.w3.org/2000/svg" viewBox="0 0 40 40"><path d="m28.67 12.51-2.16 8.76-2.16-8.76h-6.24v3.24c-.75-2.84-3.54-3.55-6-3.59-3 0-6.39 1.28-6.51 5.29h4.17a2 2 0 0 1 2.16-1.89c1.28 0 1.87.54 1.9 1.39s-.48 1.26-1.89 1.26h-1.41v2.91h1.28a1.63 1.63 0 0 1 1.78 1.43c.05 1.23-.81 1.77-1.87 1.78-1.88-.07-2.37-1.52-2.37-2.76H5c0 .84 0 6.31 6.81 6.27 3.27 0 5.64-1.35 6.31-3.24v2.9h4.2v-9.45l2.32 9.45h3.75l2.33-9.44v9.45H35v-15Zm-10.54 8.74a3.35 3.35 0 0 0-1.71-1.74 2.88 2.88 0 0 0 1.71-2Z" data-name="3M"/></svg>