<svg xmlns="http://www.w3.org/2000/svg" viewBox="0 0 40 40"><path d="M5 20c0 3.06 6.28 5.61 15 5.61S35 23.06 35 20s-6.29-5.61-15-5.61S5 16.94 5 20Z"/><path fill="#fff" d="M14.94 17.56a1 1 0 0 0-.06.4v1.68s.9-1.17 1.1-1.45a1.56 1.56 0 0 0 .35-.63h2.94a3.14 3.14 0 0 0-.61.6l-1.08 1.31s1.36 2.06 1.53 2.33a3.19 3.19 0 0 0 .33.4h-3.37a1.5 1.5 0 0 0-.28-.63l-.91-1.39v1.62a1 1 0 0 0 .06.4h-2.81a.83.83 0 0 0 .07-.4V18a.83.83 0 0 0-.07-.4Zm10.42 0h-5.43A.83.83 0 0 1 20 18v3.8a.83.83 0 0 1-.07.4h5.43v-1.29A.77.77 0 0 1 25 21h-2.32v-.61h2.2v-1h-2.2v-.61H25a.89.89 0 0 1 .39.06Zm7.53 4.24a1 1 0 0 0 .22.4h-2.95a.8.8 0 0 0-.08-.4s0-.11-.11-.27v-.06h-1.72v.07l-.1.26a1 1 0 0 0-.07.4h-2.35a1.27 1.27 0 0 0 .21-.4l1.39-3.8a.78.78 0 0 0 .08-.39h3.92a.7.7 0 0 0 .09.39c.11.3 1.37 3.58 1.47 3.84m-3.32-1.31-.41-1.08a1.49 1.49 0 0 1-.09-.3 2.63 2.63 0 0 1-.08.3l-.39 1.08ZM10.73 18a.83.83 0 0 1 .07-.4H7.74a1 1 0 0 1 .06.4v3.8a1 1 0 0 1-.06.4h3.06a.83.83 0 0 1-.07-.4Z"/></svg>